<svg xmlns="http://www.w3.org/2000/svg" xmlns:xlink="http://www.w3.org/1999/xlink" width="203" height="93" viewBox="0 0 203 93"><defs><style>.a{fill:#fff;stroke:#707070;}.b,.g{fill:#0b2356;}.b{font-size:68px;}.b,.h{font-family:Avenir-Black, Avenir;font-weight:800;}.c,.h{fill:#00a9c9;}.d{clip-path:url(#a);}.e{fill:#b7b7b7;}.f{clip-path:url(#b);}.h{font-size:12px;}</style><clipPath id="a"><rect class="a" width="40" height="25" transform="translate(0.019 -0.265)"/></clipPath><clipPath id="b"><path class="a" d="M318.085-1150v26.6h45.081l-17.283,31.038-41.448-2.8L290.9-1131.249Z" transform="translate(-290.904 1150)"/></clipPath></defs><text class="b" transform="translate(0 68)"><tspan x="0" y="0" xml:space="preserve">M   SS</tspan></text><g transform="translate(53.2 17.265)"><path class="c" d="M80.025,40.1a3.928,3.928,0,1,0,3.962,3.927A3.938,3.938,0,0,0,80.025,40.1Z" transform="translate(-34.01 -24.446)"/><path class="c" d="M120.045,0a3.928,3.928,0,1,0,3.962,3.927A3.938,3.938,0,0,0,120.045,0Z" transform="translate(-58.207 0)"/><g class="d" transform="translate(28.781)"><path class="e" d="M53.935,25.439a18.026,18.026,0,0,0-.166-2.354,26.161,26.161,0,0,0-2.981-9.033,26.647,26.647,0,0,0-6.3-7.694A26.917,26.917,0,0,0,34.458,1.021,21.391,21.391,0,0,0,28.626.1h-.5c-.1-.012-.2.027-.3-.023H26.171a1,1,0,0,1-.34.023h-.455c-.585.016-1.17.02-1.748.09A27.118,27.118,0,0,0,6.4,9.426a27.025,27.025,0,0,0-4.072,6.4,25.8,25.8,0,0,0-1.8,5.539,16.584,16.584,0,0,0-.38,2.686A7.065,7.065,0,0,1,.08,25.1v.141c.051.105.012.219.024.328-.012.109.028.223-.024.328v1.593c.051.105.012.219.024.328-.012.109.028.223-.024.328v.141c.043.055.02.121.024.18.043.566.04,1.136.115,1.7A26.04,26.04,0,0,0,3.54,39.91a26.592,26.592,0,0,0,5.6,6.8,27.361,27.361,0,0,0,5.82,3.884,26.029,26.029,0,0,0,4.658,1.788,24.909,24.909,0,0,0,6.971.964c.585-.008,1.17-.008,1.752-.016a20.3,20.3,0,0,0,2.384-.191,27.067,27.067,0,0,0,16.752-9.049,26.592,26.592,0,0,0,5.31-9.431,24.064,24.064,0,0,0,1.17-7.577C53.95,26.528,53.939,25.985,53.935,25.439ZM27.005,42.1A15.413,15.413,0,1,1,42.583,26.341,15.537,15.537,0,0,1,27.005,42.1Z" transform="translate(-16.876 -0.049)"/></g><g class="f"><path class="g" d="M53.935,25.439a18.026,18.026,0,0,0-.166-2.354,26.161,26.161,0,0,0-2.981-9.033,26.647,26.647,0,0,0-6.3-7.694A26.917,26.917,0,0,0,34.458,1.021,21.391,21.391,0,0,0,28.626.1h-.5c-.1-.012-.2.027-.3-.023H26.171a1,1,0,0,1-.34.023h-.455c-.585.016-1.17.02-1.748.09A27.118,27.118,0,0,0,6.4,9.426a27.025,27.025,0,0,0-4.072,6.4,25.8,25.8,0,0,0-1.8,5.539,16.584,16.584,0,0,0-.38,2.686A7.065,7.065,0,0,1,.08,25.1v.141c.051.105.012.219.024.328-.012.109.028.223-.024.328v1.593c.051.105.012.219.024.328-.012.109.028.223-.024.328v.141c.043.055.02.121.024.18.043.566.04,1.136.115,1.7A26.04,26.04,0,0,0,3.54,39.91a26.592,26.592,0,0,0,5.6,6.8,27.361,27.361,0,0,0,5.82,3.884,26.029,26.029,0,0,0,4.658,1.788,24.909,24.909,0,0,0,6.971.964c.585-.008,1.17-.008,1.752-.016a20.3,20.3,0,0,0,2.384-.191,27.067,27.067,0,0,0,16.752-9.049,26.592,26.592,0,0,0,5.31-9.431,24.064,24.064,0,0,0,1.17-7.577C53.95,26.528,53.939,25.985,53.935,25.439ZM27.005,42.1A15.413,15.413,0,1,1,42.583,26.341,15.537,15.537,0,0,1,27.005,42.1Z" transform="translate(11.905 -0.049)"/></g></g><text class="h" transform="translate(5 87)"><tspan x="0" y="0">Massive Online Simple Sociocracy</tspan></text></svg>